<?xml version="1.0" encoding="UTF-8"?>
<svg xmlns="http://www.w3.org/2000/svg" xmlns:xlink="http://www.w3.org/1999/xlink" width="240" zoomAndPan="magnify" viewBox="0 0 180 74.999997" height="100" preserveAspectRatio="xMidYMid meet" version="1.0">
  <defs>
    <clipPath id="c21fa84027">
      <path d="M 15.601562 17.828125 L 55 17.828125 L 55 56.828125 L 15.601562 56.828125 Z M 15.601562 17.828125 " clip-rule="nonzero"></path>
    </clipPath>
    <clipPath id="345614f086">
      <path d="M 62 42 L 73 42 L 73 56.828125 L 62 56.828125 Z M 62 42 " clip-rule="nonzero"></path>
    </clipPath>
    <clipPath id="a97b014b3d">
      <path d="M 75 42 L 85 42 L 85 56.828125 L 75 56.828125 Z M 75 42 " clip-rule="nonzero"></path>
    </clipPath>
    <clipPath id="fb2ca88fe4">
      <path d="M 86 42 L 98 42 L 98 56.828125 L 86 56.828125 Z M 86 42 " clip-rule="nonzero"></path>
    </clipPath>
    <clipPath id="ca9d25c6c5">
      <path d="M 99 42 L 114 42 L 114 56.828125 L 99 56.828125 Z M 99 42 " clip-rule="nonzero"></path>
    </clipPath>
    <clipPath id="6a17d26815">
      <path d="M 116 42 L 126 42 L 126 56.828125 L 116 56.828125 Z M 116 42 " clip-rule="nonzero"></path>
    </clipPath>
    <clipPath id="8957542d74">
      <path d="M 126 42 L 137 42 L 137 56.828125 L 126 56.828125 Z M 126 42 " clip-rule="nonzero"></path>
    </clipPath>
    <clipPath id="3be252aa36">
      <path d="M 137 42 L 145 42 L 145 56.828125 L 137 56.828125 Z M 137 42 " clip-rule="nonzero"></path>
    </clipPath>
    <clipPath id="4bc9df2915">
      <path d="M 146 42 L 156.601562 42 L 156.601562 56.828125 L 146 56.828125 Z M 146 42 " clip-rule="nonzero"></path>
    </clipPath>
  </defs>
  <rect x="-18" width="216" fill="#ffffff" y="-7.5" height="89.999996" fill-opacity="1"></rect>
  <rect x="-18" width="216" fill="#ffffff" y="-7.5" height="89.999996" fill-opacity="1"></rect>
  <rect x="-18" width="216" fill="#ffffff" y="-7.5" height="89.999996" fill-opacity="1"></rect>
  <g clip-path="url(#c21fa84027)">
    <path fill="#059669" d="M 26.40625 25.890625 C 26.339844 25.796875 26.199219 25.679688 25.980469 25.542969 C 24.550781 24.628906 24.847656 22.3125 25.609375 21.097656 C 27.152344 18.617188 30.652344 17.414062 33.433594 18.230469 C 36.207031 19.042969 37.925781 20.898438 39.605469 23.226562 C 39.820312 23.519531 40.046875 23.746094 40.292969 23.910156 C 40.578125 24.09375 40.777344 24.03125 40.894531 23.714844 C 41.070312 23.253906 41.210938 22.699219 41.496094 22.328125 C 42.910156 20.464844 46.191406 21.242188 47.871094 22.253906 C 50.601562 23.902344 51.535156 26.714844 51.015625 29.792969 C 50.738281 31.421875 49.957031 32.792969 49.273438 34.222656 C 48.898438 35.003906 48.9375 35.496094 49.960938 35.410156 C 50.777344 35.34375 51.460938 35.496094 52.015625 35.871094 C 55.433594 38.171875 54.636719 43.242188 52.019531 45.789062 C 50.359375 47.40625 47.964844 48.195312 45.621094 48.25 C 45.050781 48.265625 44.480469 48.292969 43.914062 48.339844 C 43.738281 48.355469 43.671875 48.527344 43.859375 48.605469 C 46.207031 49.578125 45.394531 52.757812 44.226562 54.296875 C 43.332031 55.480469 42.046875 56.21875 40.371094 56.515625 C 35.175781 57.433594 32.070312 54.351562 29.886719 50.09375 C 29.738281 49.800781 29.40625 49.558594 29.417969 50.214844 C 29.429688 51.234375 28.949219 52.046875 27.976562 52.652344 C 26.699219 53.445312 25.441406 53.378906 23.945312 53.074219 C 20.742188 52.417969 18.890625 49.421875 18.761719 46.34375 C 18.652344 43.84375 19.832031 41.160156 21.277344 39.085938 C 21.386719 38.925781 21.414062 38.785156 21.359375 38.664062 C 21.308594 38.554688 21.230469 38.527344 21.121094 38.585938 C 20.429688 38.941406 19.789062 39.066406 19.199219 38.960938 C 15.890625 38.378906 15.175781 34.777344 15.976562 32.054688 C 16.550781 30.09375 18.054688 28.335938 19.890625 27.410156 C 22.09375 26.292969 23.972656 26.246094 26.273438 26.164062 C 26.492188 26.15625 26.535156 26.0625 26.40625 25.890625 Z M 41.363281 42.402344 C 40.640625 42.113281 40.515625 41.203125 41.097656 40.695312 C 42.859375 39.15625 44.292969 36.902344 45.261719 34.792969 C 46.242188 32.65625 46.722656 30.246094 45.554688 28.105469 C 44.953125 27.007812 43.667969 26.578125 42.480469 26.355469 C 41.882812 26.238281 41.769531 26.617188 41.925781 27.089844 C 42.59375 29.113281 43.84375 32.570312 42.5625 34.347656 C 41.730469 35.503906 40.675781 33.578125 40.539062 32.988281 C 39.824219 29.890625 38.429688 26.808594 35.972656 24.855469 C 33.921875 23.222656 30.65625 22.882812 28.960938 25.195312 C 28.480469 25.851562 29 26.117188 29.574219 26.257812 C 31.578125 26.753906 32.980469 27.128906 34.65625 27.878906 C 35.578125 28.289062 37.007812 28.875 36.554688 30.160156 C 36.253906 31 35.492188 30.851562 34.777344 30.550781 C 32.730469 29.6875 30.628906 29.636719 28.289062 29.636719 C 25.125 29.636719 20.570312 31.691406 21.582031 35.75 C 21.675781 36.140625 21.820312 36.40625 22.007812 36.542969 C 22.304688 36.757812 22.582031 36.734375 22.835938 36.464844 C 24.378906 34.832031 26.015625 33.011719 28.226562 32.324219 C 28.933594 32.105469 29.648438 32.375 29.710938 33.152344 C 29.757812 33.8125 28.863281 34.761719 28.390625 35.1875 C 26.394531 36.996094 24.945312 39.175781 24.042969 41.722656 C 23.582031 43.023438 23.597656 44.3125 24.09375 45.597656 C 24.703125 47.179688 26.367188 48.914062 28.273438 48.378906 C 28.691406 48.257812 28.945312 47.886719 28.753906 47.476562 C 27.902344 45.601562 27.734375 44.488281 27.464844 41.921875 C 27.414062 41.445312 27.519531 40.949219 27.777344 40.433594 C 28.113281 39.757812 28.894531 39.585938 29.425781 40.117188 C 29.59375 40.285156 29.730469 40.582031 29.832031 41 C 30.816406 45 32.578125 50.136719 37.367188 50.914062 C 39.046875 51.1875 40.347656 50.691406 41.277344 49.421875 C 41.839844 48.652344 41.535156 48.183594 40.640625 48.050781 C 38.851562 47.78125 33.9375 47.246094 33.304688 45.109375 C 33.109375 44.453125 33.523438 43.941406 34.203125 43.875 C 35.550781 43.742188 37.019531 44.523438 38.277344 44.753906 C 41.242188 45.304688 44.753906 44.960938 46.984375 42.769531 C 48.292969 41.480469 48.601562 39.933594 47.910156 38.132812 C 47.652344 37.460938 47.171875 37.875 46.890625 38.21875 C 45.527344 39.890625 43.277344 43.160156 41.363281 42.402344 Z M 41.363281 42.402344 " fill-opacity="1" fill-rule="nonzero"></path>
  </g>
  <path fill="#3c3c3e" d="M 62.585938 32.152344 L 62.585938 18.257812 C 62.585938 18.203125 62.617188 18.171875 62.675781 18.171875 L 70.238281 18.171875 C 70.261719 18.171875 70.28125 18.179688 70.300781 18.199219 L 72.128906 20.015625 C 72.148438 20.03125 72.15625 20.054688 72.15625 20.078125 L 72.15625 24.472656 C 72.15625 24.496094 72.148438 24.515625 72.128906 24.535156 L 70.296875 26.351562 C 70.28125 26.367188 70.257812 26.375 70.234375 26.375 L 63.324219 26.375 C 63.265625 26.375 63.234375 26.40625 63.234375 26.464844 L 63.234375 32.175781 C 63.234375 32.234375 63.203125 32.265625 63.144531 32.261719 L 62.671875 32.238281 C 62.613281 32.238281 62.585938 32.207031 62.585938 32.152344 Z M 71.464844 20.269531 C 71.019531 19.773438 70.496094 19.300781 70 18.859375 C 69.96875 18.832031 69.929688 18.816406 69.886719 18.816406 L 63.410156 18.816406 C 63.292969 18.816406 63.234375 18.875 63.234375 18.988281 L 63.234375 25.558594 C 63.234375 25.675781 63.292969 25.730469 63.410156 25.730469 L 69.882812 25.730469 C 69.929688 25.730469 69.96875 25.714844 70.003906 25.683594 L 71.453125 24.300781 C 71.488281 24.269531 71.507812 24.226562 71.507812 24.179688 L 71.507812 20.382812 C 71.507812 20.339844 71.492188 20.300781 71.464844 20.269531 Z M 71.464844 20.269531 " fill-opacity="1" fill-rule="nonzero"></path>
  <path fill="#3c3c3e" d="M 75.277344 24.488281 L 83.328125 24.484375 C 83.386719 24.484375 83.414062 24.453125 83.414062 24.398438 L 83.414062 18.257812 C 83.414062 18.203125 83.445312 18.171875 83.503906 18.171875 L 84.019531 18.171875 C 84.078125 18.171875 84.109375 18.203125 84.109375 18.257812 L 84.109375 32.171875 C 84.109375 32.230469 84.078125 32.261719 84.019531 32.261719 L 83.503906 32.261719 C 83.445312 32.261719 83.414062 32.230469 83.414062 32.171875 L 83.414062 25.21875 C 83.414062 25.160156 83.386719 25.132812 83.328125 25.132812 L 75.277344 25.125 C 75.214844 25.125 75.1875 25.15625 75.1875 25.214844 L 75.1875 32.171875 C 75.1875 32.230469 75.15625 32.261719 75.097656 32.261719 L 74.625 32.261719 C 74.566406 32.261719 74.539062 32.230469 74.539062 32.171875 L 74.539062 18.257812 C 74.539062 18.203125 74.566406 18.171875 74.625 18.171875 L 75.097656 18.171875 C 75.15625 18.171875 75.1875 18.203125 75.1875 18.257812 L 75.1875 24.398438 C 75.1875 24.457031 75.214844 24.488281 75.277344 24.488281 Z M 75.277344 24.488281 " fill-opacity="1" fill-rule="nonzero"></path>
  <path fill="#3c3c3e" d="M 86.113281 32.023438 C 87.617188 27.449219 89.074219 22.828125 90.679688 18.289062 C 90.703125 18.210938 90.757812 18.171875 90.839844 18.171875 L 91.859375 18.171875 C 91.941406 18.171875 91.996094 18.210938 92.023438 18.289062 L 96.578125 32.015625 C 96.613281 32.121094 96.578125 32.195312 96.472656 32.234375 L 96.183594 32.335938 C 96.070312 32.378906 95.996094 32.339844 95.960938 32.230469 L 94.492188 27.78125 C 94.464844 27.703125 94.410156 27.664062 94.328125 27.664062 L 88.363281 27.664062 C 88.28125 27.664062 88.226562 27.703125 88.199219 27.78125 L 86.734375 32.21875 C 86.699219 32.324219 86.628906 32.359375 86.519531 32.328125 L 86.226562 32.242188 C 86.113281 32.207031 86.078125 32.136719 86.113281 32.023438 Z M 90.238281 21.636719 C 89.660156 23.351562 89.097656 25.074219 88.546875 26.796875 C 88.53125 26.851562 88.539062 26.902344 88.570312 26.949219 C 88.605469 26.996094 88.652344 27.019531 88.710938 27.019531 L 93.996094 27.019531 C 94.054688 27.019531 94.101562 26.996094 94.136719 26.949219 C 94.171875 26.902344 94.179688 26.851562 94.160156 26.796875 L 91.550781 18.9375 C 91.527344 18.863281 91.476562 18.824219 91.398438 18.820312 L 91.320312 18.816406 C 91.230469 18.8125 91.171875 18.851562 91.144531 18.933594 C 90.84375 19.835938 90.539062 20.738281 90.238281 21.636719 Z M 90.238281 21.636719 " fill-opacity="1" fill-rule="nonzero"></path>
  <path fill="#3c3c3e" d="M 98.613281 32.183594 L 98.613281 18.230469 C 98.613281 18.191406 98.632812 18.171875 98.671875 18.171875 L 106.277344 18.171875 C 106.292969 18.171875 106.308594 18.175781 106.320312 18.1875 L 108.125 19.980469 C 108.136719 19.992188 108.140625 20.007812 108.140625 20.023438 L 108.140625 24.523438 C 108.140625 24.539062 108.136719 24.550781 108.125 24.5625 L 106.253906 26.367188 C 106.246094 26.375 106.230469 26.382812 106.214844 26.382812 L 102.832031 26.367188 C 102.804688 26.367188 102.789062 26.378906 102.777344 26.402344 C 102.769531 26.425781 102.773438 26.445312 102.792969 26.464844 L 108.292969 31.914062 C 108.320312 31.9375 108.320312 31.964844 108.292969 31.992188 L 107.90625 32.394531 C 107.878906 32.421875 107.851562 32.421875 107.824219 32.394531 L 101.769531 26.394531 C 101.757812 26.382812 101.746094 26.375 101.730469 26.375 L 99.320312 26.375 C 99.285156 26.375 99.265625 26.394531 99.265625 26.433594 L 99.265625 32.207031 C 99.265625 32.246094 99.246094 32.265625 99.203125 32.261719 L 98.667969 32.238281 C 98.632812 32.238281 98.613281 32.21875 98.613281 32.183594 Z M 107.503906 20.269531 C 107.191406 19.84375 106.441406 19.253906 106.03125 18.863281 C 106 18.832031 105.957031 18.816406 105.914062 18.816406 L 99.4375 18.816406 C 99.320312 18.816406 99.265625 18.875 99.265625 18.988281 L 99.265625 25.558594 C 99.265625 25.675781 99.320312 25.730469 99.4375 25.730469 L 105.925781 25.730469 C 105.972656 25.730469 106.015625 25.714844 106.050781 25.683594 L 107.484375 24.257812 C 107.519531 24.222656 107.535156 24.183594 107.535156 24.136719 L 107.535156 20.371094 C 107.535156 20.332031 107.523438 20.296875 107.503906 20.269531 Z M 107.503906 20.269531 " fill-opacity="1" fill-rule="nonzero"></path>
  <path fill="#3c3c3e" d="M 123.40625 19.074219 L 123.371094 19.074219 C 123.363281 19.078125 123.355469 19.078125 123.351562 19.085938 L 117.773438 28.46875 C 117.769531 28.476562 117.761719 28.480469 117.753906 28.480469 L 117.019531 28.480469 C 117.011719 28.480469 117.007812 28.476562 117 28.46875 L 111.386719 19.019531 C 111.378906 19.011719 111.371094 19.007812 111.359375 19.011719 C 111.351562 19.015625 111.34375 19.023438 111.34375 19.03125 L 111.347656 32.238281 C 111.347656 32.253906 111.339844 32.261719 111.324219 32.261719 L 110.71875 32.261719 C 110.703125 32.261719 110.695312 32.253906 110.695312 32.238281 L 110.695312 18.191406 C 110.695312 18.175781 110.703125 18.167969 110.71875 18.167969 L 111.589844 18.175781 C 111.597656 18.175781 111.605469 18.179688 111.609375 18.1875 L 117.367188 27.851562 C 117.378906 27.875 117.390625 27.875 117.402344 27.851562 L 123.171875 18.183594 C 123.179688 18.175781 123.183594 18.171875 123.191406 18.171875 L 124.054688 18.171875 C 124.070312 18.171875 124.078125 18.179688 124.078125 18.195312 L 124.078125 32.238281 C 124.078125 32.253906 124.070312 32.261719 124.054688 32.261719 L 123.449219 32.261719 C 123.433594 32.261719 123.425781 32.253906 123.425781 32.238281 L 123.429688 19.09375 C 123.429688 19.078125 123.421875 19.070312 123.40625 19.074219 Z M 123.40625 19.074219 " fill-opacity="1" fill-rule="nonzero"></path>
  <path fill="#3c3c3e" d="M 128.214844 27.734375 L 126.707031 32.285156 C 126.6875 32.347656 126.644531 32.367188 126.578125 32.347656 L 126.148438 32.21875 C 126.082031 32.195312 126.058594 32.152344 126.082031 32.085938 L 130.679688 18.242188 C 130.695312 18.195312 130.730469 18.171875 130.78125 18.171875 L 131.902344 18.171875 C 131.953125 18.171875 131.984375 18.195312 132 18.242188 L 136.59375 32.074219 C 136.613281 32.136719 136.59375 32.179688 136.53125 32.203125 L 136.109375 32.367188 C 136.042969 32.394531 135.996094 32.371094 135.972656 32.300781 L 134.472656 27.734375 C 134.457031 27.6875 134.421875 27.664062 134.371094 27.664062 L 128.3125 27.664062 C 128.261719 27.664062 128.230469 27.6875 128.214844 27.734375 Z M 130.246094 21.59375 C 129.671875 23.3125 129.097656 25.046875 128.523438 26.796875 C 128.503906 26.851562 128.511719 26.902344 128.546875 26.949219 C 128.582031 26.996094 128.628906 27.019531 128.6875 27.019531 L 133.980469 27.019531 C 134.039062 27.019531 134.085938 26.996094 134.121094 26.949219 C 134.15625 26.902344 134.164062 26.851562 134.144531 26.796875 C 133.292969 24.191406 132.433594 21.589844 131.5625 18.988281 C 131.515625 18.851562 131.453125 18.816406 131.316406 18.808594 C 131.226562 18.804688 131.167969 18.84375 131.140625 18.925781 C 130.839844 19.8125 130.539062 20.703125 130.246094 21.59375 Z M 130.246094 21.59375 " fill-opacity="1" fill-rule="nonzero"></path>
  <g clip-path="url(#345614f086)">
    <path fill="#3c3c3e" d="M 64.832031 47.851562 L 70.214844 47.851562 C 70.265625 47.851562 70.292969 47.824219 70.292969 47.773438 L 70.292969 42.175781 C 70.292969 42.121094 70.320312 42.097656 70.375 42.097656 L 72.597656 42.097656 C 72.648438 42.097656 72.675781 42.121094 72.675781 42.175781 L 72.675781 56.363281 C 72.675781 56.414062 72.648438 56.441406 72.597656 56.441406 L 70.375 56.441406 C 70.320312 56.441406 70.292969 56.414062 70.292969 56.363281 L 70.292969 50.121094 C 70.292969 50.070312 70.265625 50.042969 70.214844 50.042969 L 64.832031 50.042969 C 64.777344 50.042969 64.75 50.070312 64.75 50.121094 L 64.75 56.359375 C 64.75 56.414062 64.722656 56.441406 64.671875 56.441406 L 62.449219 56.441406 C 62.394531 56.441406 62.371094 56.414062 62.371094 56.363281 L 62.371094 42.175781 C 62.371094 42.121094 62.394531 42.097656 62.449219 42.097656 L 64.671875 42.097656 C 64.722656 42.097656 64.75 42.121094 64.75 42.175781 L 64.75 47.773438 C 64.75 47.824219 64.777344 47.851562 64.832031 47.851562 Z M 64.832031 47.851562 " fill-opacity="1" fill-rule="nonzero"></path>
  </g>
  <g clip-path="url(#a97b014b3d)">
    <path fill="#3c3c3e" d="M 77.910156 54.25 L 84.632812 54.25 C 84.683594 54.25 84.710938 54.277344 84.710938 54.332031 L 84.714844 56.359375 C 84.714844 56.414062 84.6875 56.441406 84.632812 56.441406 L 75.527344 56.441406 C 75.472656 56.441406 75.445312 56.414062 75.445312 56.359375 L 75.445312 42.175781 C 75.445312 42.121094 75.472656 42.097656 75.527344 42.097656 L 84.632812 42.097656 C 84.6875 42.097656 84.714844 42.121094 84.714844 42.175781 L 84.714844 44.164062 C 84.714844 44.214844 84.6875 44.242188 84.632812 44.242188 L 77.910156 44.242188 C 77.855469 44.242188 77.828125 44.269531 77.828125 44.324219 L 77.828125 47.769531 C 77.828125 47.824219 77.855469 47.851562 77.910156 47.851562 L 83.765625 47.851562 C 83.820312 47.851562 83.847656 47.878906 83.847656 47.933594 L 83.847656 49.960938 C 83.847656 50.015625 83.820312 50.042969 83.765625 50.042969 L 77.910156 50.042969 C 77.855469 50.042969 77.828125 50.070312 77.828125 50.121094 L 77.828125 54.171875 C 77.828125 54.222656 77.855469 54.25 77.910156 54.25 Z M 77.910156 54.25 " fill-opacity="1" fill-rule="nonzero"></path>
  </g>
  <g clip-path="url(#fb2ca88fe4)">
    <path fill="#3c3c3e" d="M 95.53125 56.828125 L 95.441406 56.828125 L 90.066406 50.957031 C 90.03125 50.921875 89.988281 50.902344 89.9375 50.902344 L 89.21875 50.902344 C 89.101562 50.902344 89.042969 50.957031 89.042969 51.074219 L 89.042969 56.269531 C 89.042969 56.382812 88.988281 56.441406 88.871094 56.441406 L 86.835938 56.441406 C 86.71875 56.441406 86.664062 56.382812 86.664062 56.269531 L 86.664062 42.269531 C 86.664062 42.152344 86.71875 42.097656 86.835938 42.097656 L 94.683594 42.097656 C 94.730469 42.097656 94.773438 42.113281 94.804688 42.144531 L 96.917969 44.203125 C 96.953125 44.238281 96.96875 44.277344 96.96875 44.324219 L 96.96875 48.660156 C 96.96875 48.707031 96.953125 48.75 96.917969 48.78125 L 94.8125 50.871094 C 94.773438 50.910156 94.730469 50.925781 94.679688 50.921875 L 93.480469 50.863281 C 93.253906 50.851562 93.21875 50.929688 93.371094 51.09375 L 97.121094 55.148438 C 97.199219 55.234375 97.195312 55.316406 97.113281 55.390625 Z M 93.632812 44.265625 C 93.621094 44.25 93.601562 44.242188 93.582031 44.242188 L 89.117188 44.242188 C 89.070312 44.242188 89.042969 44.269531 89.042969 44.316406 L 89.042969 48.679688 C 89.042969 48.730469 89.070312 48.753906 89.117188 48.753906 L 93.574219 48.753906 C 93.59375 48.753906 93.609375 48.746094 93.625 48.734375 L 94.566406 47.828125 C 94.578125 47.8125 94.585938 47.796875 94.585938 47.777344 L 94.585938 45.238281 C 94.585938 45.222656 94.582031 45.203125 94.566406 45.191406 Z M 93.632812 44.265625 " fill-opacity="1" fill-rule="nonzero"></path>
  </g>
  <g clip-path="url(#ca9d25c6c5)">
    <path fill="#3c3c3e" d="M 101.589844 46.15625 C 101.566406 46.238281 101.734375 47.082031 101.734375 47.292969 C 101.761719 50.285156 101.777344 53.277344 101.777344 56.269531 C 101.777344 56.382812 101.71875 56.441406 101.601562 56.441406 L 99.566406 56.441406 C 99.453125 56.441406 99.394531 56.382812 99.394531 56.269531 L 99.394531 42.269531 C 99.394531 42.152344 99.453125 42.097656 99.566406 42.097656 L 101.652344 42.097656 C 101.71875 42.097656 101.769531 42.125 101.800781 42.183594 C 103.175781 44.578125 104.554688 46.96875 105.929688 49.359375 C 105.953125 49.398438 106.410156 50.453125 106.472656 50.421875 C 106.5 50.410156 106.515625 50.390625 106.519531 50.363281 C 106.582031 50.09375 106.648438 49.902344 106.710938 49.785156 C 107.246094 48.832031 108.699219 46.296875 111.074219 42.183594 C 111.105469 42.125 111.15625 42.097656 111.222656 42.097656 L 113.296875 42.097656 C 113.410156 42.097656 113.46875 42.152344 113.46875 42.269531 L 113.46875 56.269531 C 113.46875 56.382812 113.410156 56.441406 113.296875 56.441406 L 111.261719 56.441406 C 111.148438 56.441406 111.089844 56.382812 111.089844 56.269531 C 111.085938 53.414062 111.085938 50.558594 111.089844 47.707031 C 111.089844 47.210938 111.183594 46.730469 111.246094 46.238281 C 111.25 46.1875 111.242188 46.167969 111.214844 46.175781 L 111.175781 46.191406 C 111.160156 46.195312 111.152344 46.203125 111.148438 46.21875 C 110.972656 46.679688 110.808594 47.128906 110.558594 47.570312 C 109.523438 49.417969 108.476562 51.257812 107.417969 53.089844 C 107.382812 53.148438 107.335938 53.175781 107.265625 53.175781 L 105.605469 53.179688 C 105.535156 53.179688 105.484375 53.148438 105.453125 53.089844 C 104.164062 50.839844 102.652344 48.546875 101.699219 46.152344 C 101.660156 46.050781 101.625 46.054688 101.589844 46.15625 Z M 101.589844 46.15625 " fill-opacity="1" fill-rule="nonzero"></path>
  </g>
  <g clip-path="url(#6a17d26815)">
    <path fill="#3c3c3e" d="M 118.761719 54.25 L 125.40625 54.25 C 125.472656 54.25 125.503906 54.285156 125.503906 54.347656 L 125.507812 56.347656 C 125.507812 56.410156 125.476562 56.441406 125.410156 56.441406 L 116.378906 56.441406 C 116.316406 56.441406 116.28125 56.410156 116.28125 56.347656 L 116.28125 42.191406 C 116.28125 42.128906 116.316406 42.097656 116.378906 42.097656 L 125.410156 42.097656 C 125.472656 42.097656 125.507812 42.128906 125.507812 42.191406 L 125.507812 44.148438 C 125.507812 44.210938 125.472656 44.242188 125.410156 44.242188 L 118.761719 44.242188 C 118.695312 44.242188 118.664062 44.277344 118.664062 44.339844 L 118.664062 47.753906 C 118.664062 47.820312 118.695312 47.851562 118.761719 47.851562 L 124.542969 47.851562 C 124.605469 47.851562 124.640625 47.882812 124.640625 47.949219 L 124.640625 49.945312 C 124.640625 50.011719 124.609375 50.042969 124.546875 50.042969 L 118.761719 50.042969 C 118.695312 50.042969 118.664062 50.074219 118.664062 50.136719 L 118.664062 54.15625 C 118.664062 54.21875 118.695312 54.25 118.761719 54.25 Z M 118.761719 54.25 " fill-opacity="1" fill-rule="nonzero"></path>
  </g>
  <g clip-path="url(#8957542d74)">
    <path fill="#3c3c3e" d="M 132.738281 44.339844 L 132.738281 56.34375 C 132.738281 56.40625 132.707031 56.441406 132.640625 56.441406 L 130.453125 56.441406 C 130.390625 56.441406 130.355469 56.410156 130.355469 56.347656 L 130.355469 44.339844 C 130.355469 44.277344 130.324219 44.242188 130.261719 44.242188 L 126.382812 44.242188 C 126.320312 44.242188 126.285156 44.210938 126.285156 44.148438 L 126.285156 42.191406 C 126.285156 42.128906 126.320312 42.097656 126.382812 42.097656 L 136.753906 42.097656 C 136.820312 42.097656 136.851562 42.128906 136.851562 42.191406 L 136.851562 44.148438 C 136.851562 44.210938 136.820312 44.242188 136.753906 44.242188 L 132.835938 44.242188 C 132.769531 44.242188 132.738281 44.277344 132.738281 44.339844 Z M 132.738281 44.339844 " fill-opacity="1" fill-rule="nonzero"></path>
  </g>
  <g clip-path="url(#3be252aa36)">
    <path fill="#3c3c3e" d="M 142.316406 54.25 L 144.207031 54.25 C 144.269531 54.25 144.300781 54.28125 144.300781 54.347656 L 144.300781 56.347656 C 144.300781 56.410156 144.269531 56.441406 144.207031 56.441406 L 137.902344 56.441406 C 137.835938 56.441406 137.804688 56.410156 137.804688 56.347656 L 137.804688 54.347656 C 137.804688 54.28125 137.835938 54.25 137.902344 54.25 L 139.746094 54.25 C 139.808594 54.25 139.839844 54.21875 139.839844 54.15625 L 139.839844 44.339844 C 139.839844 44.273438 139.808594 44.242188 139.746094 44.242188 L 137.902344 44.242188 C 137.835938 44.242188 137.804688 44.210938 137.804688 44.148438 L 137.804688 42.191406 C 137.804688 42.128906 137.835938 42.097656 137.902344 42.097656 L 144.207031 42.097656 C 144.269531 42.097656 144.300781 42.128906 144.300781 42.191406 L 144.300781 44.148438 C 144.300781 44.210938 144.269531 44.242188 144.207031 44.242188 L 142.316406 44.242188 C 142.253906 44.242188 142.222656 44.273438 142.222656 44.339844 L 142.222656 54.15625 C 142.222656 54.21875 142.253906 54.25 142.316406 54.25 Z M 142.316406 54.25 " fill-opacity="1" fill-rule="nonzero"></path>
  </g>
  <g clip-path="url(#4bc9df2915)">
    <path fill="#3c3c3e" d="M 148.457031 45.34375 L 148.457031 53.191406 C 148.457031 53.222656 148.46875 53.25 148.492188 53.269531 L 149.441406 54.21875 C 149.460938 54.242188 149.488281 54.25 149.519531 54.25 L 153.109375 54.25 C 153.140625 54.25 153.167969 54.242188 153.1875 54.21875 L 154.871094 52.546875 C 154.925781 52.496094 154.980469 52.496094 155.035156 52.546875 L 156.519531 54.019531 C 156.574219 54.074219 156.574219 54.128906 156.519531 54.183594 L 154.269531 56.410156 C 154.25 56.429688 154.222656 56.441406 154.191406 56.441406 L 148.480469 56.441406 C 148.453125 56.441406 148.425781 56.429688 148.402344 56.410156 L 146.109375 54.132812 C 146.085938 54.109375 146.078125 54.085938 146.078125 54.054688 L 146.078125 44.441406 C 146.078125 44.410156 146.085938 44.382812 146.109375 44.359375 L 148.359375 42.128906 C 148.382812 42.105469 148.410156 42.097656 148.441406 42.097656 L 153.933594 42.097656 C 153.960938 42.097656 153.988281 42.105469 154.011719 42.128906 L 156.304688 44.40625 C 156.328125 44.425781 156.339844 44.453125 156.339844 44.484375 L 156.339844 46.835938 C 156.339844 46.910156 156.300781 46.949219 156.226562 46.949219 L 154.070312 46.949219 C 153.996094 46.949219 153.957031 46.910156 153.957031 46.835938 L 153.957031 45.347656 C 153.957031 45.316406 153.945312 45.289062 153.925781 45.269531 L 152.929688 44.277344 C 152.910156 44.253906 152.882812 44.242188 152.851562 44.242188 L 149.566406 44.242188 C 149.535156 44.242188 149.507812 44.253906 149.484375 44.277344 L 148.492188 45.265625 C 148.46875 45.285156 148.457031 45.3125 148.457031 45.34375 Z M 148.457031 45.34375 " fill-opacity="1" fill-rule="nonzero"></path>
  </g>
</svg>
